{
  "accessors": [
    {
      "bufferView": 2,
      "componentType": 5126,
      "count": 30968,
      "max": [
        2.6437575817108154,
        0.9352556467056274,
        0.49416160583496094
      ],
      "min": [
        -4.442849159240723,
        -2.242892265319824,
        -6.59245491027832
      ],
      "type": "VEC3"
    },
    {
      "bufferView": 2,
      "byteOffset": 371616,
      "componentType": 5126,
      "count": 30968,
      "max": [
        1.0,
        1.0,
        1.0
      ],
      "min": [
        -1.0,
        -1.0,
        -1.0
      ],
      "type": "VEC3"
    },
    {
      "bufferView": 1,
      "componentType": 5126,
      "count": 30968,
      "max": [
        1.0,
        1.0000001192092896
      ],
      "min": [
        0.0,
        0.0
      ],
      "type": "VEC2"
    },
    {
      "bufferView": 0,
      "componentType": 5125,
      "count": 110499,
      "type": "SCALAR"
    },
    {
      "bufferView": 2,
      "byteOffset": 743232,
      "componentType": 5126,
      "count": 43967,
      "max": [
        2.5149574279785156,
        2.150083065032959,
        0.2827710807323456
      ],
      "min": [
        -4.300838470458984,
        -2.9777889251708984,
        -6.450443744659424
      ],
      "type": "VEC3"
    },
    {
      "bufferView": 2,
      "byteOffset": 1270836,
      "componentType": 5126,
      "count": 43967,
      "max": [
        1.0,
        1.0,
        1.0
      ],
      "min": [
        -0.9997760653495789,
        -1.0,
        -0.9999788403511047
      ],
      "type": "VEC3"
    },
    {
      "bufferView": 1,
      "byteOffset": 247744,
      "componentType": 5126,
      "count": 43967,
      "max": [
        1.0002522468566895,
        1.0110200643539429
      ],
      "min": [
        -0.03833252564072609,
        -0.011020025238394737
      ],
      "type": "VEC2"
    },
    {
      "bufferView": 0,
      "byteOffset": 441996,
      "componentType": 5125,
      "count": 201552,
      "type": "SCALAR"
    },
    {
      "bufferView": 2,
      "byteOffset": 1798440,
      "componentType": 5126,
      "count": 2170,
      "max": [
        2.59373140335083,
        0.524742841720581,
        0.3967742919921875
      ],
      "min": [
        -1.7417688369750977,
        -1.094589352607727,
        -2.7662835121154785
      ],
      "type": "VEC3"
    },
    {
      "bufferView": 2,
      "byteOffset": 1824480,
      "componentType": 5126,
      "count": 2170,
      "max": [
        0.9401757717132568,
        1.0,
        0.9401766061782837
      ],
      "min": [
        -0.9401651620864868,
        -1.0,
        -0.9401668310165405
      ],
      "type": "VEC3"
    },
    {
      "bufferView": 1,
      "byteOffset": 599480,
      "componentType": 5126,
      "count": 2170,
      "max": [
        0.5511730909347534,
        0.875
      ],
      "min": [
        0.0,
        0.0
      ],
      "type": "VEC2"
    },
    {
      "bufferView": 0,
      "byteOffset": 1248204,
      "componentType": 5125,
      "count": 7644,
      "type": "SCALAR"
    },
    {
      "bufferView": 2,
      "byteOffset": 1850520,
      "componentType": 5126,
      "count": 768,
      "max": [
        2.4567699432373047,
        0.4965302050113678,
        0.30716443061828613
      ],
      "min": [
        0.5498429536819458,
        0.367410808801651,
        -1.5997625589370728
      ],
      "type": "VEC3"
    },
    {
      "bufferView": 2,
      "byteOffset": 1859736,
      "componentType": 5126,
      "count": 768,
      "max": [
        0.7071075439453125,
        1.0,
        0.7071078419685364
      ],
      "min": [
        -0.707107424736023,
        -1.0,
        -0.707107424736023
      ],
      "type": "VEC3"
    },
    {
      "bufferView": 1,
      "byteOffset": 616840,
      "componentType": 5126,
      "count": 768,
      "max": [
        0.4589797854423523,
        0.8255542516708374
      ],
      "min": [
        0.0,
        0.0
      ],
      "type": "VEC2"
    },
    {
      "bufferView": 0,
      "byteOffset": 1278780,
      "componentType": 5125,
      "count": 2232,
      "type": "SCALAR"
    },
    {
      "bufferView": 2,
      "byteOffset": 1868952,
      "componentType": 5126,
      "count": 47759,
      "max": [
        2.6445231437683105,
        1.989799976348877,
        0.4949183464050293
      ],
      "min": [
        -4.39488410949707,
        -1.0989952087402344,
        -6.544488906860352
      ],
      "type": "VEC3"
    },
    {
      "bufferView": 2,
      "byteOffset": 2442060,
      "componentType": 5126,
      "count": 47759,
      "max": [
        1.0,
        1.0,
        1.0
      ],
      "min": [
        -1.0,
        -1.0,
        -1.0
      ],
      "type": "VEC3"
    },
    {
      "bufferView": 1,
      "byteOffset": 622984,
      "componentType": 5126,
      "count": 47759,
      "max": [
        11.000020980834961,
        1.0000004768371582
      ],
      "min": [
        -0.0008224931079894304,
        -0.05781717225909233
      ],
      "type": "VEC2"
    },
    {
      "bufferView": 0,
      "byteOffset": 1287708,
      "componentType": 5125,
      "count": 171750,
      "type": "SCALAR"
    },
    {
      "bufferView": 2,
      "byteOffset": 3015168,
      "componentType": 5126,
      "count": 2437,
      "max": [
        2.476289749145508,
        0.4712149500846863,
        0.3261842727661133
      ],
      "min": [
        -0.4489744007587433,
        -2.130465030670166,
        -2.6300501823425293
      ],
      "type": "VEC3"
    },
    {
      "bufferView": 2,
      "byteOffset": 3044412,
      "componentType": 5126,
      "count": 2437,
      "max": [
        0.9607565402984619,
        1.0,
        0.960766077041626
      ],
      "min": [
        -0.9607694149017334,
        -1.0,
        -0.9607669115066528
      ],
      "type": "VEC3"
    },
    {
      "bufferView": 1,
      "byteOffset": 1005056,
      "componentType": 5126,
      "count": 2437,
      "max": [
        0.0,
        0.0
      ],
      "min": [
        0.0,
        0.0
      ],
      "type": "VEC2"
    },
    {
      "bufferView": 0,
      "byteOffset": 1974708,
      "componentType": 5125,
      "count": 9879,
      "type": "SCALAR"
    },
    {
      "bufferView": 2,
      "byteOffset": 3073656,
      "componentType": 5126,
      "count": 26,
      "max": [
        2.33604097366333,
        -1.2960463762283325,
        0.18643522262573242
      ],
      "min": [
        -0.1508011817932129,
        -2.1698224544525146,
        -2.3004071712493896
      ],
      "type": "VEC3"
    },
    {
      "bufferView": 2,
      "byteOffset": 3073968,
      "componentType": 5126,
      "count": 26,
      "max": [
        0.7094269394874573,
        0.9940964579582214,
        0.7094268202781677
      ],
      "min": [
        -0.6819916367530823,
        -0.9940967559814453,
        -0.6819906830787659
      ],
      "type": "VEC3"
    },
    {
      "bufferView": 1,
      "byteOffset": 1024552,
      "componentType": 5126,
      "count": 26,
      "max": [
        0.0,
        0.0
      ],
      "min": [
        0.0,
        0.0
      ],
      "type": "VEC2"
    },
    {
      "bufferView": 0,
      "byteOffset": 2014224,
      "componentType": 5125,
      "count": 60,
      "type": "SCALAR"
    },
    {
      "bufferView": 2,
      "byteOffset": 3074280,
      "componentType": 5126,
      "count": 2280,
      "max": [
        0.6674050092697144,
        1.6451261043548584,
        -1.4816381931304932
      ],
      "min": [
        -4.621646881103516,
        0.486881285905838,
        -6.771251678466797
      ],
      "type": "VEC3"
    },
    {
      "bufferView": 2,
      "byteOffset": 3101640,
      "componentType": 5126,
      "count": 2280,
      "max": [
        0.9997636079788208,
        1.0,
        0.9998567700386047
      ],
      "min": [
        -0.999998927116394,
        -1.0,
        -0.9999858736991882
      ],
      "type": "VEC3"
    },
    {
      "bufferView": 1,
      "byteOffset": 1024760,
      "componentType": 5126,
      "count": 2280,
      "max": [
        0.9719685912132263,
        0.8488196134567261
      ],
      "min": [
        0.13201162219047546,
        0.011650165542960167
      ],
      "type": "VEC2"
    },
    {
      "bufferView": 0,
      "byteOffset": 2014464,
      "componentType": 5125,
      "count": 9057,
      "type": "SCALAR"
    },
    {
      "bufferView": 2,
      "byteOffset": 3129000,
      "componentType": 5126,
      "count": 65532,
      "max": [
        2.234387159347534,
        2.429145574569702,
        0.08478206396102905
      ],
      "min": [
        -4.458960056304932,
        0.9709742069244385,
        -6.608564853668213
      ],
      "type": "VEC3"
    },
    {
      "bufferView": 2,
      "byteOffset": 3915384,
      "componentType": 5126,
      "count": 65532,
      "max": [
        0.9996363520622253,
        0.999396800994873,
        0.9996364712715149
      ],
      "min": [
        -0.9996175169944763,
        -0.9994455575942993,
        -0.999617338180542
      ],
      "type": "VEC3"
    },
    {
      "bufferView": 1,
      "byteOffset": 1043000,
      "componentType": 5126,
      "count": 65532,
      "max": [
        1.0,
        1.0
      ],
      "min": [
        0.0,
        0.0
      ],
      "type": "VEC2"
    },
    {
      "bufferView": 0,
      "byteOffset": 2050692,
      "componentType": 5125,
      "count": 186744,
      "type": "SCALAR"
    },
    {
      "bufferView": 2,
      "byteOffset": 4701768,
      "componentType": 5126,
      "count": 2886,
      "max": [
        -1.961740493774414,
        2.301058530807495,
        -5.005365371704102
      ],
      "min": [
        -3.2240610122680664,
        0.970974326133728,
        -6.267685413360596
      ],
      "type": "VEC3"
    },
    {
      "bufferView": 2,
      "byteOffset": 4736400,
      "componentType": 5126,
      "count": 2886,
      "max": [
        0.997723400592804,
        0.9975223541259766,
        0.9977235198020935
      ],
      "min": [
        -0.9910489320755005,
        -0.9988110661506653,
        -0.9910470843315125
      ],
      "type": "VEC3"
    },
    {
      "bufferView": 1,
      "byteOffset": 1567256,
      "componentType": 5126,
      "count": 2886,
      "max": [
        0.0,
        0.0
      ],
      "min": [
        0.0,
        0.0
      ],
      "type": "VEC2"
    },
    {
      "bufferView": 0,
      "byteOffset": 2797668,
      "componentType": 5125,
      "count": 7368,
      "type": "SCALAR"
    },
    {
      "bufferView": 2,
      "byteOffset": 4771032,
      "componentType": 5126,
      "count": 384,
      "max": [
        -1.2243261337280273,
        -0.5550885796546936,
        -1.7660564184188843
      ],
      "min": [
        -1.715508222579956,
        -0.6383765339851379,
        -2.2572386264801025
      ],
      "type": "VEC3"
    },
    {
      "bufferView": 2,
      "byteOffset": 4775640,
      "componentType": 5126,
      "count": 384,
      "max": [
        0.7071074843406677,
        1.0,
        0.7071095705032349
      ],
      "min": [
        -0.7071079611778259,
        -1.0,
        -0.707107663154602
      ],
      "type": "VEC3"
    },
    {
      "bufferView": 1,
      "byteOffset": 1590344,
      "componentType": 5126,
      "count": 384,
      "max": [
        0.0,
        0.0
      ],
      "min": [
        0.0,
        0.0
      ],
      "type": "VEC2"
    },
    {
      "bufferView": 0,
      "byteOffset": 2827140,
      "componentType": 5125,
      "count": 1128,
      "type": "SCALAR"
    },
    {
      "bufferView": 2,
      "byteOffset": 4780248,
      "componentType": 5126,
      "count": 4,
      "max": [
        0.6760332584381104,
        -0.4718499779701233,
        -0.3219456672668457
      ],
      "min": [
        0.2517359256744385,
        -0.5626817941665649,
        -0.7431845664978027
      ],
      "type": "VEC3"
    },
    {
      "bufferView": 2,
      "byteOffset": 4780296,
      "componentType": 5126,
      "count": 4,
      "max": [
        0.5984970331192017,
        0.5317314267158508,
        0.5992187261581421
      ],
      "min": [
        0.5984970331192017,
        0.5317314267158508,
        0.5992187261581421
      ],
      "type": "VEC3"
    },
    {
      "bufferView": 1,
      "byteOffset": 1593416,
      "componentType": 5126,
      "count": 4,
      "max": [
        0.0,
        0.0
      ],
      "min": [
        0.0,
        0.0
      ],
      "type": "VEC2"
    },
    {
      "bufferView": 0,
      "byteOffset": 2831652,
      "componentType": 5125,
      "count": 6,
      "type": "SCALAR"
    },
    {
      "bufferView": 2,
      "byteOffset": 4780344,
      "componentType": 5126,
      "count": 4,
      "max": [
        0.4186718463897705,
        -0.5985009074211121,
        -0.09245634078979492
      ],
      "min": [
        0.26593708992004395,
        -0.7375109791755676,
        -0.16172480583190918
      ],
      "type": "VEC3"
    },
    {
      "bufferView": 2,
      "byteOffset": 4780392,
      "componentType": 5126,
      "count": 4,
      "max": [
        0.32018953561782837,
        0.24361397325992584,
        0.9154949188232422
      ],
      "min": [
        0.32018953561782837,
        0.24361397325992584,
        0.9154949188232422
      ],
      "type": "VEC3"
    },
    {
      "bufferView": 1,
      "byteOffset": 1593448,
      "componentType": 5126,
      "count": 4,
      "max": [
        0.0,
        0.0
      ],
      "min": [
        0.0,
        0.0
      ],
      "type": "VEC2"
    },
    {
      "bufferView": 0,
      "byteOffset": 2831676,
      "componentType": 5125,
      "count": 6,
      "type": "SCALAR"
    }
  ],
  "asset": {
    "extras": {
      "author": "Vladek (https://sketchfab.com/vladek27)",
      "license": "CC-BY-4.0 (http://creativecommons.org/licenses/by/4.0/)",
      "source": "https://sketchfab.com/3d-models/truck918-630abbdf13264d66bbef41738d6310e5",
      "title": "#Truck918"
    },
    "generator": "Sketchfab-11.3.0",
    "version": "2.0"
  },
  "bufferViews": [
    {
      "buffer": 0,
      "byteLength": 2831700,
      "name": "floatBufferViews",
      "target": 34963
    },
    {
      "buffer": 0,
      "byteLength": 1593480,
      "byteOffset": 2831700,
      "byteStride": 8,
      "name": "floatBufferViews",
      "target": 34962
    },
    {
      "buffer": 0,
      "byteLength": 4780440,
      "byteOffset": 4425180,
      "byteStride": 12,
      "name": "floatBufferViews",
      "target": 34962
    }
  ],
  "buffers": [
    {
      "byteLength": 9205620,
      "uri": "scene.bin"
    }
  ],
  "materials": [
    {
      "doubleSided": true,
      "name": "Material.001",
      "pbrMetallicRoughness": {
        "baseColorFactor": [
          0.1138788422272192,
          0.11178330439105834,
          0.11178330439105834,
          1.0
        ],
        "roughnessFactor": 0.3112303838413317
      }
    },
    {
      "doubleSided": true,
      "name": "Material.004",
      "pbrMetallicRoughness": {
        "baseColorFactor": [
          0.0308,
          0.0308,
          0.0308,
          1.0
        ],
        "roughnessFactor": 0.5665976567012628
      }
    },
    {
      "alphaMode": "BLEND",
      "doubleSided": true,
      "name": "Glass",
      "pbrMetallicRoughness": {
        "baseColorFactor": [
          0.3056,
          0.5348999999999999,
          0.5719999999999998,
          0.1901954167654695
        ],
        "metallicFactor": 0.0,
        "roughnessFactor": 0.8454185582
      }
    },
    {
      "doubleSided": true,
      "emissiveFactor": [
        1.0,
        1.0,
        0.2009825743009166
      ],
      "name": "Emission",
      "pbrMetallicRoughness": {
        "baseColorFactor": [
          0.2557,
          0.3808,
          0.3384,
          1.0
        ],
        "metallicFactor": 0.0,
        "roughnessFactor": 0.8889590043
      }
    },
    {
      "doubleSided": true,
      "name": "Material.002",
      "pbrMetallicRoughness": {
        "baseColorFactor": [
          0.0487,
          0.0487,
          0.0487,
          1.0
        ],
        "roughnessFactor": 0.7125218126212234
      }
    },
    {
      "doubleSided": true,
      "name": "Material.005",
      "pbrMetallicRoughness": {
        "baseColorFactor": [
          0.8648245820318268,
          0.43320988640363056,
          0.05559898926957638,
          1.0
        ],
        "metallicFactor": 0.4942040749320541,
        "roughnessFactor": 0.7915640637445355
      }
    },
    {
      "alphaMode": "BLEND",
      "doubleSided": true,
      "name": "Glass.001",
      "pbrMetallicRoughness": {
        "baseColorFactor": [
          0.3049873140698861,
          0.533276404010505,
          0.5711248294648731,
          0.06251178033550396
        ],
        "metallicFactor": 0.0,
        "roughnessFactor": 0.9761780498
      }
    },
    {
      "doubleSided": true,
      "name": "Material.006",
      "pbrMetallicRoughness": {
        "baseColorFactor": [
          0.0487,
          0.0487,
          0.0487,
          1.0
        ],
        "roughnessFactor": 0.9865089542
      }
    },
    {
      "doubleSided": true,
      "name": "Material.003",
      "pbrMetallicRoughness": {
        "baseColorFactor": [
          0.0428,
          0.0428,
          0.0428,
          1.0
        ],
        "metallicFactor": 0.0,
        "roughnessFactor": 0.9899250427
      }
    },
    {
      "doubleSided": true,
      "emissiveFactor": [
        1.0,
        0.0,
        0.0
      ],
      "name": "Emission.003",
      "pbrMetallicRoughness": {
        "baseColorFactor": [
          0.2557,
          0.3808,
          0.3384,
          1.0
        ],
        "metallicFactor": 0.0,
        "roughnessFactor": 0.8889590043
      }
    },
    {
      "doubleSided": true,
      "emissiveFactor": [
        0.23890406023177485,
        1.0,
        1.0
      ],
      "name": "Emission.001",
      "pbrMetallicRoughness": {
        "baseColorFactor": [
          0.2557,
          0.3808,
          0.3384,
          1.0
        ],
        "metallicFactor": 0.0,
        "roughnessFactor": 0.8889590043
      }
    },
    {
      "doubleSided": true,
      "emissiveFactor": [
        1.0,
        0.03462611698018818,
        0.03462611698018818
      ],
      "name": "Emission.002",
      "pbrMetallicRoughness": {
        "baseColorFactor": [
          0.2557,
          0.3808,
          0.3384,
          1.0
        ],
        "metallicFactor": 0.0,
        "roughnessFactor": 0.8889590043
      }
    }
  ],
  "meshes": [
    {
      "name": "Slice.002_Material.001_0",
      "primitives": [
        {
          "attributes": {
            "NORMAL": 1,
            "POSITION": 0,
            "TEXCOORD_0": 2
          },
          "indices": 3,
          "material": 0,
          "mode": 4
        }
      ]
    },
    {
      "name": "Slice.002_Material.004_0",
      "primitives": [
        {
          "attributes": {
            "NORMAL": 5,
            "POSITION": 4,
            "TEXCOORD_0": 6
          },
          "indices": 7,
          "material": 1,
          "mode": 4
        }
      ]
    },
    {
      "name": "Slice.002_Glass_0",
      "primitives": [
        {
          "attributes": {
            "NORMAL": 9,
            "POSITION": 8,
            "TEXCOORD_0": 10
          },
          "indices": 11,
          "material": 2,
          "mode": 4
        }
      ]
    },
    {
      "name": "Slice.002_Emission_0",
      "primitives": [
        {
          "attributes": {
            "NORMAL": 13,
            "POSITION": 12,
            "TEXCOORD_0": 14
          },
          "indices": 15,
          "material": 3,
          "mode": 4
        }
      ]
    },
    {
      "name": "Slice.002_Material.002_0",
      "primitives": [
        {
          "attributes": {
            "NORMAL": 17,
            "POSITION": 16,
            "TEXCOORD_0": 18
          },
          "indices": 19,
          "material": 4,
          "mode": 4
        }
      ]
    },
    {
      "name": "Slice.002_Material.005_0",
      "primitives": [
        {
          "attributes": {
            "NORMAL": 21,
            "POSITION": 20,
            "TEXCOORD_0": 22
          },
          "indices": 23,
          "material": 5,
          "mode": 4
        }
      ]
    },
    {
      "name": "Slice.002_Glass.001_0",
      "primitives": [
        {
          "attributes": {
            "NORMAL": 25,
            "POSITION": 24,
            "TEXCOORD_0": 26
          },
          "indices": 27,
          "material": 6,
          "mode": 4
        }
      ]
    },
    {
      "name": "Slice.002_Material.006_0",
      "primitives": [
        {
          "attributes": {
            "NORMAL": 29,
            "POSITION": 28,
            "TEXCOORD_0": 30
          },
          "indices": 31,
          "material": 7,
          "mode": 4
        }
      ]
    },
    {
      "name": "Slice.002_Material.003_0",
      "primitives": [
        {
          "attributes": {
            "NORMAL": 33,
            "POSITION": 32,
            "TEXCOORD_0": 34
          },
          "indices": 35,
          "material": 8,
          "mode": 4
        }
      ]
    },
    {
      "name": "Slice.002_Material.003_0",
      "primitives": [
        {
          "attributes": {
            "NORMAL": 37,
            "POSITION": 36,
            "TEXCOORD_0": 38
          },
          "indices": 39,
          "material": 8,
          "mode": 4
        }
      ]
    },
    {
      "name": "Slice.002_Emission.003_0",
      "primitives": [
        {
          "attributes": {
            "NORMAL": 41,
            "POSITION": 40,
            "TEXCOORD_0": 42
          },
          "indices": 43,
          "material": 9,
          "mode": 4
        }
      ]
    },
    {
      "name": "Slice.002_Emission.001_0",
      "primitives": [
        {
          "attributes": {
            "NORMAL": 45,
            "POSITION": 44,
            "TEXCOORD_0": 46
          },
          "indices": 47,
          "material": 10,
          "mode": 4
        }
      ]
    },
    {
      "name": "Slice.002_Emission.002_0",
      "primitives": [
        {
          "attributes": {
            "NORMAL": 49,
            "POSITION": 48,
            "TEXCOORD_0": 50
          },
          "indices": 51,
          "material": 11,
          "mode": 4
        }
      ]
    }
  ],
  "nodes": [
    {
      "children": [
        1
      ],
      "matrix": [
        1.0,
        0.0,
        0.0,
        0.0,
        0.0,
        2.220446049250313e-16,
        -1.0,
        0.0,
        0.0,
        1.0,
        2.220446049250313e-16,
        0.0,
        0.0,
        0.0,
        0.0,
        1.0
      ],
      "name": "Sketchfab_model"
    },
    {
      "children": [
        2
      ],
      "matrix": [
        1.0,
        0.0,
        0.0,
        0.0,
        0.0,
        0.0,
        1.0,
        0.0,
        0.0,
        -1.0,
        0.0,
        0.0,
        0.0,
        0.0,
        0.0,
        1.0
      ],
      "name": "4868b7dcc57244f58b821768eac3b29c.fbx"
    },
    {
      "children": [
        3
      ],
      "name": "RootNode"
    },
    {
      "children": [
        4,
        5,
        6,
        7,
        8,
        9,
        10,
        11,
        12,
        13,
        14,
        15,
        16
      ],
      "matrix": [
        -0.7071067227763984,
        3.3824246193953794e-05,
        0.7071066702003149,
        0.0,
        -5.349697402713528e-08,
        -0.9999999392538313,
        4.7781215328807975e-05,
        0.0,
        0.7071066710092995,
        3.374859252582957e-05,
        0.7071067219710289,
        0.0,
        1.5200002193450928,
        2.101226329803467,
        2.792797803878784,
        1.0
      ],
      "name": "Slice.002"
    },
    {
      "mesh": 0,
      "name": "Slice.002_Material.001_0"
    },
    {
      "mesh": 1,
      "name": "Slice.002_Material.004_0"
    },
    {
      "mesh": 2,
      "name": "Slice.002_Glass_0"
    },
    {
      "mesh": 3,
      "name": "Slice.002_Emission_0"
    },
    {
      "mesh": 4,
      "name": "Slice.002_Material.002_0"
    },
    {
      "mesh": 5,
      "name": "Slice.002_Material.005_0"
    },
    {
      "mesh": 6,
      "name": "Slice.002_Glass.001_0"
    },
    {
      "mesh": 7,
      "name": "Slice.002_Material.006_0"
    },
    {
      "mesh": 8,
      "name": "Slice.002_Material.003_0"
    },
    {
      "mesh": 9,
      "name": "Slice.002_Material.003_0"
    },
    {
      "mesh": 10,
      "name": "Slice.002_Emission.003_0"
    },
    {
      "mesh": 11,
      "name": "Slice.002_Emission.001_0"
    },
    {
      "mesh": 12,
      "name": "Slice.002_Emission.002_0"
    }
  ],
  "scene": 0,
  "scenes": [
    {
      "name": "Sketchfab_Scene",
      "nodes": [
        0
      ]
    }
  ]
}
